<svg xmlns="http://www.w3.org/2000/svg" xmlns:xlink="http://www.w3.org/1999/xlink" fill="#000000" height="800px" width="800px" version="1.1" id="Layer_1" viewBox="0 0 512.012 512.012" xml:space="preserve">
<g>
	<g>
		<path d="M437.339,320.012h-42.667c-5.867,0-10.667,4.8-10.667,10.667c0,5.867,4.8,10.667,10.667,10.667h31.68    c-5.227,82.56-71.467,144.213-159.68,148.907V213.345h85.333c5.867,0,10.667-4.8,10.667-10.667c0-5.867-4.8-10.667-10.667-10.667    h-85.333v-86.4c28.907-5.867,47.467-34.027,41.6-62.933c-5.867-28.8-34.027-47.467-62.933-41.6    c-28.907,5.867-47.467,34.133-41.6,62.933c4.267,20.907,20.693,37.333,41.6,41.6v86.4h-85.333c-5.867,0-10.667,4.8-10.667,10.667    c0,5.867,4.8,10.667,10.667,10.667h85.333v276.907c-88.107-4.693-154.347-66.347-159.68-148.907h31.68    c5.867,0,10.667-4.8,10.667-10.667c0-5.867-4.8-10.667-10.667-10.667H74.672c-5.867,0-10.667,4.8-10.667,10.667    c0,103.36,82.56,181.333,192,181.333s192-77.973,192-181.333C448.006,324.811,443.206,320.012,437.339,320.012z M224.006,53.345    c0-17.707,14.293-32,32-32s32,14.293,32,32s-14.293,32-32,32S224.006,71.051,224.006,53.345z"/>
	</g>
</g>
</svg>