<svg xmlns="http://www.w3.org/2000/svg" xmlns:xlink="http://www.w3.org/1999/xlink" fill="#000000" height="800px" width="800px" version="1.1" id="Layer_1" viewBox="0 0 501.44 501.44" xml:space="preserve">
<g>
	<g>
		<path d="M500.907,235.36c-0.107-1.067-0.107-2.133-0.213-3.2c-0.32-4.48-0.747-8.96-1.387-13.44c0-0.427-0.107-0.853-0.213-1.387    C482.773,94.88,377.6,0.053,250.667,0.053c-49.493,0-97.92,14.613-138.987,42.24c-0.213,0.107-0.427,0.107-0.533,0.213    c-0.96,0.64-1.92,1.493-2.987,2.133c-4.16,2.88-8.213,5.867-12.053,8.96c-1.493,1.173-3.093,2.347-4.587,3.627    c-4.693,3.947-9.28,8-13.653,12.16c-0.96,0.96-1.92,1.813-2.88,2.773C70.08,77.067,65.28,82.08,60.8,87.413l-0.64,0.747    C21.333,133.28,0,190.987,0,250.72c0,119.467,84.053,219.627,196.16,244.587h0.107c11.307,2.453,22.72,4.267,34.24,5.12    c1.173,0.107,2.347,0.213,3.52,0.32c5.547,0.32,10.987,0.64,16.64,0.64c7.467,0,14.933-0.427,22.293-1.067    c0.533,0,1.067-0.107,1.6-0.107c7.36-0.747,14.613-1.813,21.76-3.093l1.28-0.213c7.467-1.387,14.72-3.2,21.867-5.227l0.32-0.107    c94.4-27.093,166.08-108.267,179.307-207.68c0.107-0.747,0.213-1.493,0.32-2.24c0.533-4.16,0.96-8.32,1.28-12.587    c0.107-1.067,0.213-2.24,0.213-3.307c0.32-5.013,0.533-10.027,0.533-15.04S501.227,240.48,500.907,235.36z M86.507,91.467    c0.427-0.427,0.853-0.96,1.387-1.387c3.627-3.627,7.36-7.147,11.093-10.56c0.64-0.64,1.387-1.173,2.027-1.707    c3.093,8.32,9.813,15.467,15.787,19.84c8.747,6.293,17.493,8.533,24.853,6.08c7.36-2.453,30.827-2.347,43.84,2.24    c4.053,1.173,8.213,2.133,12.48,2.773c19.2,3.627,59.093,11.2,73.173,36.267c7.467,13.227,7.147,30.72-0.853,51.947    c-3.2,8.64-11.52,13.547-24.64,20.693c-18.133,9.813-40.64,22.08-49.387,54.827c-1.813,6.613-9.067,39.147-9.6,50.773    c-0.32,5.227,0.533,13.12,1.493,23.147c1.067,10.453,3.093,30.613,1.813,40c-12.907-8.427-39.36-41.92-42.24-50.987    c-0.213-4.587-1.6-11.2-3.413-20.16c-2.987-14.293-7.147-34.027-7.147-51.093c0-19.093-14.827-29.013-26.667-36.907    c-13.867-9.28-22.4-15.68-22.4-29.76c0-15.573,6.507-27.307,12.267-37.653c5.973-10.773,12.267-21.973,7.787-34.347    c-4.267-11.947-17.813-17.707-33.387-20.907C78.507,100,82.453,95.733,86.507,91.467z M292.053,476.747l-1.493,0.107    c-6.187,1.067-12.373,1.92-18.667,2.56c-0.747,0.107-1.387,0.107-2.133,0.107c-6.293,0.533-12.693,0.853-19.093,0.853    c-15.573,0-31.04-1.6-46.187-4.693c1.707-0.747,3.627-1.067,5.44-1.067c14.08-0.64,26.133-3.947,38.933-7.467    c6.4-1.707,13.013-3.627,20.373-5.227c12.48-2.667,22.72-17.067,35.733-35.2c11.84-16.64,28.16-39.467,40.747-40.533    c10.027-0.64,42.773,16.96,54.507,38.507C369.387,451.36,332.053,469.28,292.053,476.747z M416,409.653    c-17.173-26.347-53.44-46.4-72-44.907c-22.507,1.92-40.533,27.093-56.427,49.387c-7.253,10.133-18.24,25.493-22.827,26.773    c-7.787,1.707-14.827,3.627-21.547,5.44c-12.16,3.307-22.613,6.187-34.24,6.72c-13.973,0.64-21.333,7.573-27.84,13.653    c-0.64,0.64-1.493,1.28-2.24,2.027C87.573,438.667,21.333,352.48,21.333,251.04c0-45.333,13.44-89.6,38.613-127.253    c25.173,3.413,27.733,8.747,27.733,8.853c1.173,3.2-2.347,9.493-6.293,16.747c-6.293,11.307-14.933,26.88-14.933,48    c0,26.24,18.453,38.507,31.893,47.573c11.947,8,17.173,12.16,17.173,19.2c0,19.413,4.373,40.32,7.68,55.573    c1.387,6.72,2.987,14.187,2.987,16.64c0,15.893,45.44,73.28,66.88,73.28c4.48,0,8.747-1.92,11.733-5.333    c8.64-9.6,7.36-29.973,4.373-59.947c-0.853-8.427-1.6-16.32-1.493-19.947c0.427-8.853,6.933-39.147,8.96-46.293    c6.293-23.893,22.187-32.533,38.933-41.6c13.867-7.573,28.267-15.36,34.453-31.893c10.347-27.413,10.133-50.987-0.533-69.973    c-18.987-33.707-65.387-42.56-87.787-46.827c-3.733-0.747-8-1.493-9.28-2.027c-17.387-6.08-45.653-6.293-56.96-2.453    c-1.28,0-5.44-1.707-9.707-5.973c-4.267-4.267-6.293-8.533-6.293-10.453c0-0.213,0.64-2.24,4.48-7.04    c68.48-45.547,156.267-50.773,229.76-13.653c-19.733,17.493-40.533,42.453-21.653,80.213c12.907,25.707,30.4,31.787,45.867,37.227    c6.933,2.453,13.44,4.693,19.947,8.64c27.413,16.64,32,37.76,34.24,58.027c0.427,3.307,0.96,7.573,1.707,12.48    c2.88,19.947,8.213,57.067,1.387,71.893c-7.68,16.853-3.093,39.36,10.88,56.107C437.44,384.8,427.413,397.813,416,409.653z     M479.787,263.52c0,0.64-0.107,1.173-0.107,1.813c-0.213,3.627-0.533,7.253-0.96,10.88c0,0.32-0.107,0.747-0.107,1.067    c-0.427,3.947-0.96,7.893-1.707,11.84c-3.733,21.12-10.24,41.493-19.413,60.8c-4.8-8.96-6.187-18.987-2.88-26.24    c9.387-20.587,3.947-58.667,0.32-83.84c-0.64-4.587-1.28-8.64-1.6-11.84c-2.027-17.6-5.653-50.453-44.373-73.92    c-8.427-5.12-16.64-8-24-10.56c-14.4-5.013-24.853-8.64-33.813-26.56c-12.8-25.707-0.533-40.213,22.293-59.413    c57.28,36.587,95.573,96.427,104.64,163.84c0.107,0.427,0.107,0.96,0.213,1.387c0.533,3.947,0.853,7.893,1.173,11.84    c0.107,0.96,0.107,1.813,0.213,2.773c0.32,4.587,0.427,9.067,0.427,13.653C480.107,255.2,480,259.36,479.787,263.52z"/>
	</g>
</g>
</svg>